<svg xmlns="http://www.w3.org/2000/svg" xmlns:xlink="http://www.w3.org/1999/xlink" width="375" height="210" viewBox="0 0 375 210">
    <defs>
        <path id="0byb3rhbea" d="M0 0H375V210H0z"/>
    </defs>
    <g fill="none" fill-rule="evenodd">
        <g>
            <mask id="r9326fr4tb" fill="#fff">
                <use xlink:href="#0byb3rhbea"/>
            </mask>
            <g fill-rule="nonzero" mask="url(#r9326fr4tb)">
                <g>
                    <path fill="#30DCE9" d="M43 35.134H526V719.134H43z" transform="translate(-117 -123)"/>
                    <path fill="#FFF" d="M28 342.704c36.203-26.083 84.809-12.294 107.942 23.258 11.5 17.676 18.92 39.14 34.599 53.792 15.464 14.252 34.207 24.519 54.589 29.903 37.607 9.968 70.602-3.754 106.504-12.858 71.738-18.208 147.856-19.77 218.19 5.183 2.987-3.877 2.89-9.289-.234-13.058-1.638-2.16-3.343-2.06-5.683-2.425-5.166-1.297-10.176-3.146-14.942-5.516-5.645-2.158-11.403-4.01-17.25-5.548-30.888-8.14-63.113-6.247-94.637-3.888-5.783.465-11.6 1.263-17.416 1.828-3.978.365-21.26 2.259-20.66-4.984.623-2.926 2.439-5.465 5.015-7.01 32.56-25.053 83.572-24.588 120.344-11.098 5.382 1.96 44.728 10.732 44.728 15.45l-.803-21.065c-.63-2.892-.899-5.849-.802-8.805-1.103 5.416-8.19 6.645-13.706 6.645-28.95-1.562-54.322-15.483-84.14-14.686-48.806 1.296-87.884 33.492-131.61 50.603-29.818 11.662-64.016 13.921-94.135 1.96-33.128-13.29-52.717-42.429-72.073-70.604-12.335-18.474-26.14-36.748-44.895-48.643-17.583-11.064-61.04-21.696-73.342 3.323-1.043 2.52-1.674 5.19-1.872 7.908-1.27 10.1-2.541 20.234-3.711 30.335z" transform="translate(-117 -123)"/>
                    <path fill="#47F3FC" d="M541.983 361.733c.606 4.3-15.564 1.613-17.077 1.11-6.148-2.412-11.93-5.668-17.177-9.677-12.506-8.701-24.574-13.841-39.936-10.28-8.942 2.05-18.052 4.838-26.893 3.36-2.42-.404-5.143-1.445-5.816-3.83-.286-1.758.164-3.556 1.244-4.973 6.723-10.818 19.632-16.798 30.255-23.215 12.908-7.895 25.178-16.798 38.692-23.719 5.618-3.303 11.974-5.15 18.489-5.375 2.016 0 15.396 2.452 14.69 5.812-1.345 6.518-4.135 12.935-3.597 19.553.033 0 7.126 51.167 7.126 51.234z" transform="translate(-117 -123)"/>
                    <path fill="#5A37BC" d="M23.26 288.517c33.03-30.393 87.1-14.912 120.6 7.155 23.181 15.28 42.176 35.843 59.16 57.576 16.013 20.53 29.916 43.2 55.945 52.127 31.155 10.7 65.76-2.91 92.36-22.335 57.988-42.363 107.635-134.98 190.748-124.28.92-4.216 1.157-8.55.704-12.84v-2.976c0-8.827-45.862 1.338-49.58 2.474-18.622 6.063-36.371 14.526-52.796 25.178-34.204 21.532-67.67 66.169-110.014 69.913-16.493.993-32.814-3.81-46.13-13.574-34.571-24.14-45.56-66.337-70.35-98.435-20.635-27.116-49.01-48.348-82.342-57.309-41.138-11.033-87.938-3.945-122.979 20.597-5.092 3.544-9.715 13.374-8.341 19.426v77.838c8.308 0 14.74-1.137 23.014-.535z" transform="translate(-117 -123)"/>
                    <path fill="#5E53F8" d="M14 139.544c49.257-26.073 108.753-21.46 163.632-11.733 15.794 2.808 32.626 6.686 43.702 18.218 7.027 7.42 10.842 17.215 14.757 26.742 9.277 22.534 19.835 44.52 31.622 65.851 7.395 13.371 16.196 27.377 30.317 33.427 12.314 5.215 26.77 3.343 38.95-2.072 12.18-5.415 22.889-13.605 33.664-21.527 37.78-27.738 78.682-50.96 121.87-69.194 12.616-5.315 25.867-10.497 39.486-9.093v-40.112c-.335-.635-2.61-.669-2.945-1.304-30.518 1.17-62.04 3.176-89.244 17.048-12.816 6.518-24.227 15.477-36.24 23.399-14.59 9.46-30.82 17.75-48.253 19.689-17.434 1.938-36.508-3.343-47.919-16.714-12.983-15.21-13.786-37.104-21.817-55.389-11.712-26.741-38.65-44.29-66.925-51.778-28.276-7.488-57.857-6.285-87.003-4.613-36.842 2.24-74.688 5.281-108.385 20.658-2.275 18.25-7.127 40.246-9.269 58.497z" transform="translate(-117 -123)"/>
                    <path fill="#47F3FC" d="M17.406 150.068c.368-2.482 25.068-5.367 28.013-5.837 10.389-1.51 20.864-2.35 31.36-2.515 20.48-.347 40.918 2.022 60.779 7.043 28.381 7.245 56.428 19.857 78.752 39.076 25.034 21.534 30.121 48.367 43.509 76.877 6.809 14.916 17.46 27.744 30.858 37.164 20.75 14.054 50.738 17.911 71.355 1.476 8.468-6.709 14.392-16.134 20.75-24.922 38.69-53.666 103.753-92.004 169.218-83.853v-42.866c-38.188-4.83-76.208 8.687-108.271 28.712-28.482 17.776-53.55 40.685-78.15 63.191-7.017 6.925-14.89 12.922-23.427 17.845-10.51 5.5-23.796 7.815-34.875 2.582-7.77-4.082-13.895-10.729-17.336-18.817-18.442-39.377-6.092-87.576-36.013-122.727-19.813-23.48-49.098-28.175-78.115-28.343C122.132 93.761 68.56 99.08 16 110.02c2.773 13.168 3.249 26.718 1.406 40.049z" transform="translate(-117 -123)"/>
                    <path fill="#F96767" d="M536 41.196c-46.671 15.444-81.408 53.688-123.946 78.079-16.068 9.213-34.637 16.57-52.806 12.892-21.068-4.342-36.237-22.37-48.471-39.769-16.869-24.225-32.604-50.738-57.806-66.28C240.586 18.502 226.527 13.987 212 12.96c17.002-4.043 31.937-8.318 49.005-12.328s28.57 17.067 40.004 30.423c8.301 9.743 16.669 19.52 23.87 30.025 10 14.35 19.168 30.953 35.37 37.58 18.468 7.557 40.004-.728 55.505-13.255 15.502-12.527 27.803-28.634 43.671-40.664 18.23-13.786 40.438-21.373 63.34-21.64 4.178.128 8.318.831 12.302 2.088-.813 5.342-.495 10.793.933 16.006z" transform="translate(-117 -123)"/>
                </g>
            </g>
            <path fill="#0A3869" fill-opacity=".698" d="M0 0H375V210H0z" mask="url(#r9326fr4tb)"/>
        </g>
    </g>
</svg>
